/* XPM */
static char *_524395532264[] = {
/* columns rows colors chars-per-pixel */
"128 128 19 1 ",
"  c #FF573C",
". c #FF6248",
"X c #FF6C54",
"o c #FF7761",
"O c #FF816D",
"+ c #FF8C79",
"@ c #FF9685",
"# c #FF9989",
"$ c #FFA192",
"% c #FFAB9E",
"& c #FFB6AA",
"* c #FFC0B6",
"= c #FFCBC3",
"- c #FFD5CF",
"; c #FFE0DB",
": c #FFEBE7",
"> c #FFF5F4",
", c white",
"< c None",
/* pixels */
"<<<<<<<<<<<<<<<<<<<<<<<<<<<<<<<<<<<<<<<<<<<<<<<<<<<<<<                    <<<<<<<<<<<<<<<<<<<<<<<<<<<<<<<<<<<<<<<<<<<<<<<<<<<<<<",
"<<<<<<<<<<<<<<<<<<<<<<<<<<<<<<<<<<<<<<<<<<<<<<<<<                              <<<<<<<<<<<<<<<<<<<<<<<<<<<<<<<<<<<<<<<<<<<<<<<<<",
"<<<<<<<<<<<<<<<<<<<<<<<<<<<<<<<<<<<<<<<<<<<<<<                                    <<<<<<<<<<<<<<<<<<<<<<<<<<<<<<<<<<<<<<<<<<<<<<",
"<<<<<<<<<<<<<<<<<<<<<<<<<<<<<<<<<<<<<<<<<<<                                          <<<<<<<<<<<<<<<<<<<<<<<<<<<<<<<<<<<<<<<<<<<",
"<<<<<<<<<<<<<<<<<<<<<<<<<<<<<<<<<<<<<<<<                                                <<<<<<<<<<<<<<<<<<<<<<<<<<<<<<<<<<<<<<<<",
"<<<<<<<<<<<<<<<<<<<<<<<<<<<<<<<<<<<<<<                                                    <<<<<<<<<<<<<<<<<<<<<<<<<<<<<<<<<<<<<<",
"<<<<<<<<<<<<<<<<<<<<<<<<<<<<<<<<<<<                                                          <<<<<<<<<<<<<<<<<<<<<<<<<<<<<<<<<<<",
"<<<<<<<<<<<<<<<<<<<<<<<<<<<<<<<<<                                                              <<<<<<<<<<<<<<<<<<<<<<<<<<<<<<<<<",
"<<<<<<<<<<<<<<<<<<<<<<<<<<<<<<<<                                                                <<<<<<<<<<<<<<<<<<<<<<<<<<<<<<<<",
"<<<<<<<<<<<<<<<<<<<<<<<<<<<<<<                                                                    <<<<<<<<<<<<<<<<<<<<<<<<<<<<<<",
"<<<<<<<<<<<<<<<<<<<<<<<<<<<<                                                                        <<<<<<<<<<<<<<<<<<<<<<<<<<<<",
"<<<<<<<<<<<<<<<<<<<<<<<<<<<                                                                          <<<<<<<<<<<<<<<<<<<<<<<<<<<",
"<<<<<<<<<<<<<<<<<<<<<<<<<<                                                                            <<<<<<<<<<<<<<<<<<<<<<<<<<",
"<<<<<<<<<<<<<<<<<<<<<<<<                                                                                <<<<<<<<<<<<<<<<<<<<<<<<",
"<<<<<<<<<<<<<<<<<<<<<<<                                                                                  <<<<<<<<<<<<<<<<<<<<<<<",
"<<<<<<<<<<<<<<<<<<<<<<                                                                                    <<<<<<<<<<<<<<<<<<<<<<",
"<<<<<<<<<<<<<<<<<<<<<                                                                                      <<<<<<<<<<<<<<<<<<<<<",
"<<<<<<<<<<<<<<<<<<<<                                                                                        <<<<<<<<<<<<<<<<<<<<",
"<<<<<<<<<<<<<<<<<<<                                                                                          <<<<<<<<<<<<<<<<<<<",
"<<<<<<<<<<<<<<<<<<                                                                                            <<<<<<<<<<<<<<<<<<",
"<<<<<<<<<<<<<<<<<                                                                                              <<<<<<<<<<<<<<<<<",
"<<<<<<<<<<<<<<<<                                                                                                <<<<<<<<<<<<<<<<",
"<<<<<<<<<<<<<<<                                                                                                  <<<<<<<<<<<<<<<",
"<<<<<<<<<<<<<<                                                                                                    <<<<<<<<<<<<<<",
"<<<<<<<<<<<<<                                   ,,,,,,,,,,,,,,,,,,,,,,,,,,,,,,;-%+.                                <<<<<<<<<<<<<",
"<<<<<<<<<<<<<                                   ,,,,,,,,,,,,,,,,,,,,,,,,,,,,,,,,,,,-@.                             <<<<<<<<<<<<<",
"<<<<<<<<<<<<                                   O,,,,,,,,,,,,,,,,,,,,,,,,,,,,,,,,,,,,,>%.                            <<<<<<<<<<<<",
"<<<<<<<<<<<                                    O,,,,,,,,,,,,,,,,,,,,,,,,,,,,,,,,,,,,,,,>$                            <<<<<<<<<<<",
"<<<<<<<<<<                                     $,,,,,,,,,,,,,,,,,,,,,,,,,,,,,,,,,,,,,,,,,-.                           <<<<<<<<<<",
"<<<<<<<<<<                                     %,,,,,,,,,,,,,,,,,,,,,,,,,,,,,,,,,,,,,,,,,,>o                          <<<<<<<<<<",
"<<<<<<<<<                                      =,,,,,,,,,,,,,,,,,,,,,,,,,,,,,,,,,,,,,,,,,,,>o                          <<<<<<<<<",
"<<<<<<<<<                                      -,,,,,,,,,,,,,,,,,,,,,,,,,,,,,,,,,,,,,,,,,,,,>o                         <<<<<<<<<",
"<<<<<<<<                                       >,,,,,,,,,,,,,,,,,,,,,,,,,,,,,,,,,,,,,,,,,,,,,;.                         <<<<<<<<",
"<<<<<<<                                        ,,,,,,,,,,,,,,,,,,,,,,,,,,,,,,,,,,,,,,,,,,,,,,,&                          <<<<<<<",
"<<<<<<<                                       o,,,,,,,,,,,,,,,,,,,,,,,,,,,,,,,,,,,,,,,,,,,,,,,,o                         <<<<<<<",
"<<<<<<                                        O,,,,,,,,,,,,,,,,,,,,,,,,,,,,,,,,,,,,,,,,,,,,,,,,-                          <<<<<<",
"<<<<<<                                        $,,,,,,,,,,,,,,;----------,,,,,,,,,,,,,,,,,,,,,,,,o                         <<<<<<",
"<<<<<<                                        %,,,,,,,,,,,,,,o           .+&>,,,,,,,,,,,,,,,,,,,*                         <<<<<<",
"<<<<<                                         =,,,,,,,,,,,,,,               .%>,,,,,,,,,,,,,,,,,>                          <<<<<",
"<<<<<                                         -,,,,,,,,,,,,,>                 X;,,,,,,,,,,,,,,,,,o                         <<<<<",
"<<<<                                          >,,,,,,,,,,,,,-                  .;,,,,,,,,,,,,,,,,%                          <<<<",
"<<<<                                          ,,,,,,,,,,,,,,=                   .>,,,,,,,,,,,,,,,=                          <<<<",
"<<<<                                         X,,,,,,,,,,,,,,%                    @,,,,,,,,,,,,,,,-                          <<<<",
"<<<                                          O,,,,,,,,,,,,,,$                     :,,,,,,,,,,,,,,,                           <<<",
"<<<                                          @,,,,,,,,,,,,,,O                     &,,,,,,,,,,,,,,,                           <<<",
"<<<                                  oOOOOOOO*,,,,,,,,,,,,,,#OOOOOOO.             +,,,,,,,,,,,,,,,                           <<<",
"<<                                   -,,,,,,,,,,,,,,,,,,,,,,,,,,,,,,O             o,,,,,,,,,,,,,,,                            <<",
"<<                                   :,,,,,,,,,,,,,,,,,,,,,,,,,,,,,,.              ,,,,,,,,,,,,,,,                            <<",
"<<                                   ,,,,,,,,,,,,,,,,,,,,,,,,,,,,,,,               ,,,,,,,,,,,,,,,                            <<",
"<                                   X,,,,,,,,,,,,,,,,,,,,,,,,,,,,,,;              o,,,,,,,,,,,,,,:                             <",
"<                                   O,,,,,,,,,,,,,,,,,,,,,,,,,,,,,,-              +,,,,,,,,,,,,,,-                             <",
"<                                   @,,,,,,,,,,,,,,,,,,,,,,,,,,,,,,&              &,,,,,,,,,,,,,,&                             <",
"<                                   %,,,,,,,,,,,,,,,,,,,,,,,,,,,,,,%              ;,,,,,,,,,,,,,,@                             <",
"<                                   O%%%%%%%-,,,,,,,,,,,,,,*%%%%%%%O             o,,,,,,,,,,,,,,,X                             <",
"                                            *,,,,,,,,,,,,,,                      *,,,,,,,,,,,,,,:                               ",
"                                            -,,,,,,,,,,,,,,                     O,,,,,,,,,,,,,,,&                               ",
"                                            ;,,,,,,,,,,,,,-                    .;,,,,,,,,,,,,,,,o                               ",
"                                            ,,,,,,,,,,,,,,-                    *,,,,,,,,,,,,,,,:                                ",
"                                           .,,,,,,,,,,,,,,%                   *,,,,,,,,,,,,,,,,@                                ",
"                                           O,,,,,,,,,,,,,,%                 X;,,,,,,,,,,,,,,,,:                                 ",
"                                           +,,,,,,,,,,,,,,O               .%>,,,,,,,,,,,,,,,,,@                                 ",
"                                           %,,,,,,,,,,,,,,O             o&>,,,,,,,,,,,,,,,,,,;                                  ",
"                                           &,,,,,,,,,,,,,,%%%%%%%%%%%%=:,,,,,,,,,,,,,,,,,,,,,O                                  ",
"                                           -,,,,,,,,,,,,,,,,,,,,,,,,,,,,,,,,,,,,,,,,,,,,,,,,%                                   ",
"                                           ;,,,,,,,,,,,,,,,,,,,,,,,,,,,,,,,,,,,,,,,,,,,,,,,-                                    ",
"                                           ,,,,,,,,,,,,,,,,,,,,,,,,,,,,,,,,,,,,,,,,,,,,,,,;.                                    ",
"                                          .,,,,,,,,,,,,,,,,,,,,,,,,,,,,,,,,,,,,,,,,,,,,,,>o                                     ",
"                                          O,,,,,,,,,,,,,,,,,,,,,,,,,,,,,,,,,,,,,,,,,,,,,>o                                      ",
"                                          +,,,,,,,,,,,,,,,,,,,,,,,,,,,,,,,,,,,,,,,,,,,,;.                                       ",
"                                          %,,,,,,,,,,,,,,,,,,,,,,,,,,,,,,,,,,,,,,,,,,,*.                                        ",
"                                          %,,,,,,,,,,,,,,,,,,,,,,,,,,,,,,,,,,,,,,,,,>+                                          ",
"                                          -,,,,,,,,,,,,,,,,,,,,,,,,,,,,,,,,,,,,,,,,*.                                           ",
"                                          -,,,,,,,,,,,,,,,,,,,,,,,,,,,,,,,,,,,,,,*X                                             ",
"                                          ,,,,,,,,,,,,,,,,,,,,,,,,,,,,,,,,,,,,:$X                                               ",
"<                                         ,,,,,,,,,,,,,,,,,,,,,,,,,,,,,,,,>=$o                                                 <",
"<                                        O,,,,,,,,,,,,,,-%%%%%%%%%%%%%%+O.                                                     <",
"<                                        O,,,,,,,,,,,,,,+                                                                      <",
"<                                        %,,,,,,,,,,,,,,O                                                                      <",
"<                                        %,,,,,,,,,,,,,,X                                                                      <",
"<<                                       -,,,,,,,,,,,,,,                                                                      <<",
"<<                                       -,,,,,,,,,,,,,:                                                                      <<",
"<<                                       ,,,,,,,,,,,,,,-                                                                      <<",
"<<<                                      ,,,,,,,,,,,,,,*                                                                     <<<",
"<<<                                     O,,,,,,,,,,,,,,%                                                                     <<<",
"<<<                                     O,,,,,,,,,,,,,,@                                                                     <<<",
"<<<<                                    $,,,,,,,,,,,,,,O                                                                    <<<<",
"<<<<                                    %,,,,,,,,,,,,,,X                                                                    <<<<",
"<<<<                                    =,,,,,,,,,,,,,,                                                                     <<<<",
"<<<<<                                   -,,,,,,,,,,,,,:                                                                    <<<<<",
"<<<<<                                   >,,,,,,,,,,,,,-                                                                    <<<<<",
"<<<<<<                                  ,,,,,,,,,,,,,,*                                                                   <<<<<<",
"<<<<<<                                 o,,,,,,,,,,,,,,%                                                                   <<<<<<",
"<<<<<<                                 O,,,,,,,,,,,,,,$                                                                   <<<<<<",
"<<<<<<<                                $,,,,,,,,,,,,,,O                                                                  <<<<<<<",
"<<<<<<<                                %,,,,,,,,,,,,,,o                                                                  <<<<<<<",
"<<<<<<<<                               =,,,,,,,,,,,,,,                                                                  <<<<<<<<",
"<<<<<<<<<                              -,,,,,,,,,,,,,>                                                                 <<<<<<<<<",
"<<<<<<<<<                              >,,,,,,,,,,,,,-                                                                 <<<<<<<<<",
"<<<<<<<<<<                             ,,,,,,,,,,,,,,=                                                                <<<<<<<<<<",
"<<<<<<<<<<                            X,,,,,,,,,,,,,,%                                                                <<<<<<<<<<",
"<<<<<<<<<<<                           O,,,,,,,,,,,,,,$                                                               <<<<<<<<<<<",
"<<<<<<<<<<<<                          @,,,,,,,,,,,,,,O                                                              <<<<<<<<<<<<",
"<<<<<<<<<<<<<                         %,,,,,,,,,,,,,,o                                                             <<<<<<<<<<<<<",
"<<<<<<<<<<<<<                         *,,,,,,,,,,,,,,                                                              <<<<<<<<<<<<<",
"<<<<<<<<<<<<<<                        -,,,,,,,,,,,,,>                                                             <<<<<<<<<<<<<<",
"<<<<<<<<<<<<<<<                       :,,,,,,,,,,,,,-                                                            <<<<<<<<<<<<<<<",
"<<<<<<<<<<<<<<<<                      OOOOOOOOOOOOOOo                                                           <<<<<<<<<<<<<<<<",
"<<<<<<<<<<<<<<<<<                                                                                              <<<<<<<<<<<<<<<<<",
"<<<<<<<<<<<<<<<<<<                                                                                            <<<<<<<<<<<<<<<<<<",
"<<<<<<<<<<<<<<<<<<<                                                                                          <<<<<<<<<<<<<<<<<<<",
"<<<<<<<<<<<<<<<<<<<<                                                                                        <<<<<<<<<<<<<<<<<<<<",
"<<<<<<<<<<<<<<<<<<<<<                                                                                      <<<<<<<<<<<<<<<<<<<<<",
"<<<<<<<<<<<<<<<<<<<<<<                                                                                    <<<<<<<<<<<<<<<<<<<<<<",
"<<<<<<<<<<<<<<<<<<<<<<<                                                                                  <<<<<<<<<<<<<<<<<<<<<<<",
"<<<<<<<<<<<<<<<<<<<<<<<<                                                                                <<<<<<<<<<<<<<<<<<<<<<<<",
"<<<<<<<<<<<<<<<<<<<<<<<<<<                                                                            <<<<<<<<<<<<<<<<<<<<<<<<<<",
"<<<<<<<<<<<<<<<<<<<<<<<<<<<                                                                          <<<<<<<<<<<<<<<<<<<<<<<<<<<",
"<<<<<<<<<<<<<<<<<<<<<<<<<<<<                                                                        <<<<<<<<<<<<<<<<<<<<<<<<<<<<",
"<<<<<<<<<<<<<<<<<<<<<<<<<<<<<<                                                                    <<<<<<<<<<<<<<<<<<<<<<<<<<<<<<",
"<<<<<<<<<<<<<<<<<<<<<<<<<<<<<<<<                                                                <<<<<<<<<<<<<<<<<<<<<<<<<<<<<<<<",
"<<<<<<<<<<<<<<<<<<<<<<<<<<<<<<<<<                                                              <<<<<<<<<<<<<<<<<<<<<<<<<<<<<<<<<",
"<<<<<<<<<<<<<<<<<<<<<<<<<<<<<<<<<<<                                                          <<<<<<<<<<<<<<<<<<<<<<<<<<<<<<<<<<<",
"<<<<<<<<<<<<<<<<<<<<<<<<<<<<<<<<<<<<<<                                                    <<<<<<<<<<<<<<<<<<<<<<<<<<<<<<<<<<<<<<",
"<<<<<<<<<<<<<<<<<<<<<<<<<<<<<<<<<<<<<<<<                                                <<<<<<<<<<<<<<<<<<<<<<<<<<<<<<<<<<<<<<<<",
"<<<<<<<<<<<<<<<<<<<<<<<<<<<<<<<<<<<<<<<<<<<                                          <<<<<<<<<<<<<<<<<<<<<<<<<<<<<<<<<<<<<<<<<<<",
"<<<<<<<<<<<<<<<<<<<<<<<<<<<<<<<<<<<<<<<<<<<<<<                                    <<<<<<<<<<<<<<<<<<<<<<<<<<<<<<<<<<<<<<<<<<<<<<",
"<<<<<<<<<<<<<<<<<<<<<<<<<<<<<<<<<<<<<<<<<<<<<<<<<                              <<<<<<<<<<<<<<<<<<<<<<<<<<<<<<<<<<<<<<<<<<<<<<<<<",
"<<<<<<<<<<<<<<<<<<<<<<<<<<<<<<<<<<<<<<<<<<<<<<<<<<<<<<                    <<<<<<<<<<<<<<<<<<<<<<<<<<<<<<<<<<<<<<<<<<<<<<<<<<<<<<"
};
