/* XPM */
static char *_524395514726[] = {
/* columns rows colors chars-per-pixel */
"16 16 19 1 ",
"  c #FF573C",
". c #FF6248",
"X c #FF6C54",
"o c #FF7761",
"O c #FF816D",
"+ c #FF8C79",
"@ c #FF9685",
"# c #FFA192",
"$ c #FFAB9E",
"% c #FFC0B6",
"& c #FFCBC3",
"* c #FFD0C9",
"= c #FFD5CF",
"- c #FFE5E1",
"; c #FFEAE7",
": c #FFEBE7",
"> c #FFF5F4",
", c white",
"< c None",
/* pixels */
"<<<<<      <<<<<",
"<<<          <<<",
"<<            <<",
"<    o,,,,>@   <",
"<    O,>=:,,X  <",
"    O*,-@.;,O   ",
"    @;,;@ ;,O   ",
"     &,%O&,>.   ",
"     =,,,,>+    ",
"     >,%$#X     ",
"     ,,         ",
"<   o,,        <",
"<   O,=        <",
"<<  X$@       <<",
"<<<          <<<",
"<<<<<      <<<<<"
};
