/* XPM */
static char *_524395527157[] = {
/* columns rows colors chars-per-pixel */
"64 64 19 1 ",
"  c #FF573C",
". c #FF6248",
"X c #FF6C54",
"o c #FF7761",
"O c #FF816D",
"+ c #FF8C79",
"@ c #FF9685",
"# c #FFA192",
"$ c #FFAB9E",
"% c #FFB6AA",
"& c #FFC0B6",
"* c #FFCBC3",
"= c #FFD5CF",
"- c #FFE0DB",
"; c #FFEBE7",
": c #FFF5F3",
"> c #FFF5F4",
", c white",
"< c None",
/* pixels */
"<<<<<<<<<<<<<<<<<<<<<<<<<              <<<<<<<<<<<<<<<<<<<<<<<<<",
"<<<<<<<<<<<<<<<<<<<<<<                    <<<<<<<<<<<<<<<<<<<<<<",
"<<<<<<<<<<<<<<<<<<<                          <<<<<<<<<<<<<<<<<<<",
"<<<<<<<<<<<<<<<<<                              <<<<<<<<<<<<<<<<<",
"<<<<<<<<<<<<<<<                                  <<<<<<<<<<<<<<<",
"<<<<<<<<<<<<<<                                    <<<<<<<<<<<<<<",
"<<<<<<<<<<<<                                        <<<<<<<<<<<<",
"<<<<<<<<<<<                                          <<<<<<<<<<<",
"<<<<<<<<<<                                            <<<<<<<<<<",
"<<<<<<<<<                                              <<<<<<<<<",
"<<<<<<<<                                                <<<<<<<<",
"<<<<<<<                                                  <<<<<<<",
"<<<<<<                  ,,,,,,,,,,,,,,,,=%o               <<<<<<",
"<<<<<<                 O,,,,,,,,,,,,,,,,,,,=o             <<<<<<",
"<<<<<                  O,,,,,,,,,,,,,,,,,,,,,@             <<<<<",
"<<<<                   $,,,,,,,,,,,,,,,,,,,,,,@             <<<<",
"<<<<                   $,,,,,,,,,,,,,,,,,,,,,,,O            <<<<",
"<<<                    =,,,,,,,,,,,,,,,,,,,,,,,-             <<<",
"<<<                    =,,,,,,;$$$$$%-,,,,,,,,,,O            <<<",
"<<                     ,,,,,,,$       O-,,,,,,,,&             <<",
"<<                     ,,,,,,,$        .-,,,,,,,;             <<",
"<<                    o,,,,,,,O         X,,,,,,,,             <<",
"<                 XOOO#,,,,,,,#OOO.      -,,,,,,,              <",
"<                 $,,,,,,,,,,,,,,,o      &,,,,,,,              <",
"<                 %,,,,,,,,,,,,,,,       &,,,,,,,              <",
"                  =,,,,,,,,,,,,,,>       =,,,,,,>               ",
"                  %===:,,,,,,:===%      X,,,,,,,*               ",
"                      >,,,,,,$          %,,,,,,,#               ",
"                      ,,,,,,,$         O,,,,,,,,X               ",
"                     o,,,,,,,O        +>,,,,,,,&                ",
"                     O,,,,,,,O      +=,,,,,,,,,X                ",
"                     #,,,,,,,======,,,,,,,,,,,%                 ",
"                     $,,,,,,,,,,,,,,,,,,,,,,,-                  ",
"                     *,,,,,,,,,,,,,,,,,,,,,,-.                  ",
"                     =,,,,,,,,,,,,,,,,,,,,,=.                   ",
"                     ;,,,,,,,,,,,,,,,,,,,>#                     ",
"                     ,,,,,,,,,,,,,,,,,,;$.                      ",
"                    X,,,,,,,-=======*$O                         ",
"                    O,,,,,,,O                                   ",
"<                   @,,,,,,,.                                  <",
"<                   $,,,,,,,                                   <",
"<                   &,,,,,,-                                   <",
"<<                  =,,,,,,=                                  <<",
"<<                  ;,,,,,,%                                  <<",
"<<                  ,,,,,,,$                                  <<",
"<<<                X,,,,,,,+                                 <<<",
"<<<                O,,,,,,,O                                 <<<",
"<<<<               @,,,,,,,X                                <<<<",
"<<<<               $,,,,,,,                                 <<<<",
"<<<<<              %,,,,,,;                                <<<<<",
"<<<<<<             =,,,,,,=                               <<<<<<",
"<<<<<<             -,,,,,,&                               <<<<<<",
"<<<<<<<            ,,,,,,,$                              <<<<<<<",
"<<<<<<<<           OOOOOOOX                             <<<<<<<<",
"<<<<<<<<<                                              <<<<<<<<<",
"<<<<<<<<<<                                            <<<<<<<<<<",
"<<<<<<<<<<<                                          <<<<<<<<<<<",
"<<<<<<<<<<<<                                        <<<<<<<<<<<<",
"<<<<<<<<<<<<<<                                    <<<<<<<<<<<<<<",
"<<<<<<<<<<<<<<<                                  <<<<<<<<<<<<<<<",
"<<<<<<<<<<<<<<<<<                              <<<<<<<<<<<<<<<<<",
"<<<<<<<<<<<<<<<<<<<                          <<<<<<<<<<<<<<<<<<<",
"<<<<<<<<<<<<<<<<<<<<<<                    <<<<<<<<<<<<<<<<<<<<<<",
"<<<<<<<<<<<<<<<<<<<<<<<<<              <<<<<<<<<<<<<<<<<<<<<<<<<"
};
