/* XPM */
static char *_524395521895[] = {
/* columns rows colors chars-per-pixel */
"32 32 20 1 ",
"  c #FF573C",
". c #FF6248",
"X c #FF6C54",
"o c #FF7761",
"O c #FF816D",
"+ c #FF8C79",
"@ c #FF9685",
"# c #FFA192",
"$ c #FFAB9E",
"% c #FFB6AA",
"& c #FFC0B6",
"* c #FFCBC3",
"= c #FFD5CF",
"- c #FFDBD5",
"; c #FFE0DB",
": c #FFEBE7",
"> c #FFF5F3",
", c #FFF5F4",
"< c white",
"1 c None",
/* pixels */
"11111111111          11111111111",
"111111111              111111111",
"1111111                  1111111",
"111111                    111111",
"11111                      11111",
"1111                        1111",
"111        X<<<<<<<<,&.      111",
"11         O<<<<<<<<<<,o      11",
"11         @<<<<<<<<<<<:      11",
"1          $<<<$OO#:<<<<+      1",
"1          &<<<O   .;<<<$      1",
"         %=><<<-=o  #<<<$       ",
"         ,<<<<<<<   #<<<$       ",
"         $$<<<>$$   =<<<@       ",
"          X<<<=    $<<<,.       ",
"          O<<<:$$$:<<<<$        ",
"          @<<<<<<<<<<<;         ",
"          $<<<<<<<<<<*.         ",
"          %<<<<<<<:&O           ",
"          =<<<o                 ",
"          ;<<<                  ",
"1         <<<,                 1",
"1        .<<<=                 1",
"11       O<<<*                11",
"11       +<<<$                11",
"111      $<<<#               111",
"1111     @===o              1111",
"11111                      11111",
"111111                    111111",
"1111111                  1111111",
"111111111              111111111",
"11111111111          11111111111"
};
